<svg width="current" height="current" viewBox="0 0 20 20" fill="none" xmlns="http://www.w3.org/2000/svg">
<path d="M16.6667 1.66675H3.33341C2.89139 1.66675 2.46746 1.84234 2.1549 2.1549C1.84234 2.46746 1.66675 2.89139 1.66675 3.33341V18.3334L5.00008 15.0001H16.6667C17.1088 15.0001 17.5327 14.8245 17.8453 14.5119C18.1578 14.1994 18.3334 13.7754 18.3334 13.3334V3.33341C18.3334 2.89139 18.1578 2.46746 17.8453 2.1549C17.5327 1.84234 17.1088 1.66675 16.6667 1.66675ZM5.00008 7.50008H15.0001V9.16675H5.00008V7.50008ZM11.6667 11.6667H5.00008V10.0001H11.6667V11.6667ZM15.0001 6.66675H5.00008V5.00008H15.0001" fill="current"/>
</svg>
